<?xml version="1.0" encoding="utf-8"?>
<!-- Generator: Adobe Illustrator 20.0.0, SVG Export Plug-In . SVG Version: 6.00 Build 0)  -->
<!DOCTYPE svg PUBLIC "-//W3C//DTD SVG 1.1//EN" "http://www.w3.org/Graphics/SVG/1.1/DTD/svg11.dtd">
<svg version="1.1" id="message-in-a-bottle_xA0_Image_1_"
	 xmlns="http://www.w3.org/2000/svg" xmlns:xlink="http://www.w3.org/1999/xlink" x="0px" y="0px" viewBox="0 0 448 448"
	 enable-background="new 0 0 448 448" xml:space="preserve">
<g>
	<path d="M298.5,88.6c-5.3-8-5.1-9.8,1.2-16.1c7.3-7.3,14.6-14.6,21.9-21.9c6.3-6.3,9.1-6.3,15.4-0.2c0.9,0.9,1.9,1.8,3.3,3.1
		c5.4-7,10.7-13.8,15.9-20.7c5.8-7.5,9.4-7.8,16.1-1.1c16.1,16.1,32.3,32.3,48.4,48.4c6.3,6.3,6.1,10-1,15.5
		c-6.8,5.3-13.7,10.6-21.2,16.3c1.7,1.8,3.3,3.3,4.9,5c3.5,3.8,3.9,7.9,0.3,11.6c-8.7,9-17.5,17.8-26.5,26.5
		c-3.9,3.8-7.2,3.4-12.9-1c-12.5,10.3-22.1,22.3-21.1,39.7c0.3,5.9,2.2,11.8,2.8,17.7c1.8,17.6-3.5,33-15.9,45.5
		C278,309.3,225.7,361.6,173.3,413.8c-11.9,11.9-29.3,11.8-41.1,0c-31.4-31.3-62.7-62.6-94-94c-11-11.1-11.5-27.5-1.3-39.3
		c1.2-1.4,2.5-2.7,3.8-4c50.7-50.7,101.4-101.3,151.9-152c16.5-16.5,35.6-22.2,58.3-16.7c14.9,3.6,27.9-0.6,39-11.2
		C292.7,93.8,295.7,91.1,298.5,88.6z M308.7,98.9c-2.7,2.8-5.3,5.9-8.2,8.6c-15.2,14.7-33.3,19.8-53.8,14.9
		c-16.6-3.9-30.5,0-42.4,12c-51.2,51.3-102.5,102.5-153.7,153.7c-7.9,7.9-7.8,14.5,0,22.3c30.1,30.2,60.3,60.3,90.5,90.5
		c8.6,8.6,14.7,8.6,23.4-0.1c51-51,102-102,153-153c12.2-12.1,16-26.2,12.1-42.9c-4.6-19.3-0.1-36.7,13.3-51.4
		c3.3-3.7,7.5-6.6,11.1-9.7C338.3,128.3,323.8,113.9,308.7,98.9z M314.3,80.5c19.1,19.1,38.4,38.4,57.1,57.1
		c4.9-4.8,10.2-9.9,14.9-14.6c-19-19-38.2-38.3-57.2-57.2C324.3,70.5,319.2,75.7,314.3,80.5z M388,100.7c5.7-4.4,11.5-8.9,17.1-13.2
		c-13.6-13.6-26.9-26.9-40.4-40.5c-4.3,5.6-8.8,11.5-13.2,17.1C363.8,76.4,375.7,88.4,388,100.7z"/>
	<path fill="#FFFFFF" d="M308.7,98.9c15.1,15,29.6,29.4,45.2,45c-3.6,3.1-7.8,6-11.1,9.7c-13.3,14.8-17.8,32.1-13.3,51.4
		c3.9,16.7,0.1,30.7-12.1,42.9c-51.1,50.9-102,102-153,153c-8.7,8.7-14.7,8.7-23.4,0.1c-30.2-30.2-60.3-60.3-90.5-90.5
		c-7.9-7.9-7.9-14.5,0-22.3c51.2-51.2,102.5-102.5,153.7-153.7c11.9-11.9,25.8-15.9,42.4-12c20.5,4.9,38.5-0.3,53.8-14.9
		C303.4,104.8,306.1,101.8,308.7,98.9z M270.6,198.6c0.3-0.8,0.4-1.1,0.6-1.3c5.8-5.8,11.8-11.3,17.2-17.5c2-2.2,3.4-5.8,3.4-8.8
		c0-10.3-8.2-20.2-18.5-22.9c-12.2-3.2-22.2,0.9-30.8,9.5c-47.2,47.3-94.3,94.7-141.9,141.7c-17.5,17.3-11,44,7,54.8
		c15.8,9.5,36.3,6.1,51.1-8.7c47.5-47.5,95-95,142.5-142.5c1.9-1.9,3.7-3.9,5.3-6c5.8-7.5,8.6-16.1,8.9-25.5c0.2-5-2.8-8.3-7.2-8.5
		c-4.6-0.2-7.6,2.6-8.1,7.6c-0.1,1-0.1,2-0.2,3C298.6,188.1,285.3,199.6,270.6,198.6z"/>
	<path fill="#FFFFFF" d="M314.3,80.5c4.9-4.8,10-9.9,14.9-14.7c18.9,18.9,38.2,38.2,57.2,57.2c-4.8,4.7-10.1,9.9-14.9,14.6
		C352.7,118.9,333.4,99.6,314.3,80.5z"/>
	<path fill="#FFFFFF" d="M388,100.7c-12.2-12.3-24.2-24.3-36.5-36.6c4.4-5.7,8.9-11.5,13.2-17.1c13.6,13.6,26.8,26.9,40.4,40.5
		C399.5,91.8,393.7,96.3,388,100.7z"/>
	<path d="M270.6,198.6c14.6,1.1,28-10.4,29.4-25c0.1-1,0.1-2,0.2-3c0.5-5,3.5-7.8,8.1-7.6c4.4,0.2,7.3,3.6,7.2,8.5
		c-0.3,9.4-3.1,18-8.9,25.5c-1.6,2.1-3.4,4.1-5.3,6c-47.5,47.5-95,95-142.5,142.5c-14.8,14.8-35.3,18.1-51.1,8.7
		c-18-10.8-24.5-37.5-7-54.8c47.6-46.9,94.6-94.4,141.9-141.7c8.6-8.6,18.6-12.7,30.8-9.5c10.3,2.7,18.5,12.6,18.5,22.9
		c0,3-1.4,6.5-3.4,8.8c-5.4,6.1-11.4,11.7-17.2,17.5C271,197.4,271,197.8,270.6,198.6z M235.8,186.4c-1.1,1-2.3,1.9-3.3,2.9
		c-40.2,40.1-80.1,80.6-120.6,120.3c-12,11.7-4.8,30,8.9,33.5c10.6,2.7,19.3-0.9,26.7-8.3c39.1-39.1,78.2-78.2,117.3-117.3
		c1-1,1.8-2,2.8-3.2C249.1,209.2,245,205.6,235.8,186.4z M255.7,191.2c6-6.1,11.7-11.9,17.4-17.7c3.7-3.8,3.8-6.2-0.8-8.9
		c-2.4-1.4-5.7-2.4-8.4-2C250.9,164.4,246.5,178.7,255.7,191.2z"/>
	<path fill="#FFFFFF" d="M235.8,186.4c9.3,19.2,13.3,22.8,31.9,27.9c-1,1.2-1.9,2.3-2.8,3.2c-39.1,39.1-78.2,78.2-117.3,117.3
		c-7.4,7.4-16.2,11-26.7,8.3c-13.8-3.5-20.9-21.8-8.9-33.5c40.6-39.7,80.5-80.1,120.6-120.3C233.5,188.3,234.6,187.4,235.8,186.4z"
		/>
	<path fill="#FFFFFF" d="M255.7,191.2c-9.2-12.5-4.8-26.7,8.2-28.6c2.7-0.4,6,0.6,8.4,2c4.6,2.8,4.5,5.1,0.8,8.9
		C267.4,179.3,261.7,185.1,255.7,191.2z"/>
</g>
</svg>
