<?xml version="1.0" standalone="no"?>
<!DOCTYPE svg PUBLIC "-//W3C//DTD SVG 20010904//EN"
 "http://www.w3.org/TR/2001/REC-SVG-20010904/DTD/svg10.dtd">
<svg version="1.0" xmlns="http://www.w3.org/2000/svg"
 width="448.000000pt" height="448.000000pt" viewBox="0 0 448.000000 448.000000"
 preserveAspectRatio="xMidYMid meet">
<metadata>
Created by potrace 1.11, written by Peter Selinger 2001-2013
</metadata>
<g transform="translate(0.000000,448.000000) scale(0.100000,-0.100000)"
fill="#000000" stroke="none">
<path d="M3593 4205 c-12 -8 -53 -57 -92 -108 -39 -50 -79 -103 -90 -117 l-19
-24 -41 37 c-70 63 -77 60 -254 -118 -92 -93 -157 -165 -159 -180 -3 -14 3
-38 14 -56 l19 -32 -38 -40 c-136 -142 -271 -189 -436 -153 -203 45 -383 5
-522 -116 -27 -24 -407 -401 -844 -838 -665 -665 -798 -804 -818 -847 -34 -75
-33 -173 4 -248 8 -16 245 -260 526 -542 547 -549 549 -550 655 -557 55 -4
134 17 177 47 17 11 397 388 846 836 845 846 865 868 903 986 35 108 40 224
16 315 -44 162 -7 295 120 430 l68 72 25 -17 c35 -22 57 -25 87 -9 14 7 89 77
168 156 126 129 142 148 142 178 0 26 -9 43 -37 72 -33 34 -35 39 -21 50 9 7
51 40 94 73 130 99 154 123 154 158 0 28 -34 66 -288 319 -302 303 -309 308
-359 273z m251 -381 c108 -108 196 -200 196 -205 0 -4 -15 -18 -32 -31 -18
-12 -57 -42 -87 -66 l-54 -44 -183 183 -183 182 67 88 c37 49 70 89 74 89 3 0
94 -88 202 -196z m-267 -273 l290 -290 -81 -80 -81 -81 -288 288 c-158 158
-287 291 -287 295 0 9 142 156 151 157 4 0 137 -130 296 -289z m-273 -267
c119 -119 216 -219 216 -221 0 -3 -30 -36 -67 -73 -160 -161 -213 -346 -165
-565 19 -83 19 -117 2 -198 -24 -115 -16 -106 -873 -965 -447 -447 -824 -820
-839 -828 -35 -18 -98 -18 -124 0 -11 8 -241 236 -512 506 -364 365 -492 499
-497 522 -18 80 -51 44 813 908 444 444 827 821 851 838 92 66 234 88 356 55
66 -18 196 -17 269 2 95 25 186 79 267 159 41 40 77 74 80 74 3 1 103 -95 223
-214z"/>
<path d="M2570 3011 c-78 -25 -138 -81 -865 -808 -853 -853 -810 -802 -810
-949 1 -70 5 -89 33 -146 91 -185 287 -256 493 -179 30 12 71 33 90 48 52 42
1521 1512 1553 1555 55 74 95 221 74 278 -28 83 -148 55 -148 -33 0 -54 -30
-133 -67 -176 -40 -48 -122 -90 -189 -97 l-49 -6 113 114 c109 111 112 116
112 159 0 53 -36 135 -76 174 -64 60 -185 91 -264 66z m125 -155 c19 -8 40
-27 47 -41 11 -25 7 -31 -94 -132 l-106 -106 -22 43 c-50 98 -10 212 85 239
43 13 52 13 90 -3z m-335 -249 c0 -22 47 -104 81 -141 42 -47 102 -83 174
-105 l54 -17 -622 -621 c-425 -425 -636 -628 -665 -643 -160 -79 -334 15 -335
181 0 27 8 57 19 75 26 40 1277 1293 1287 1287 4 -2 7 -10 7 -16z"/>
</g>
</svg>
